<?xml version="1.0" standalone="no"?>
<!DOCTYPE svg PUBLIC "-//W3C//DTD SVG 20010904//EN"
 "http://www.w3.org/TR/2001/REC-SVG-20010904/DTD/svg10.dtd">
<svg version="1.0" xmlns="http://www.w3.org/2000/svg"
 width="1024.000000pt" height="1024.000000pt" viewBox="0 0 1024.000000 1024.000000"
 preserveAspectRatio="xMidYMid meet">
<metadata>
Created by potrace 1.14, written by Peter Selinger 2001-2017
</metadata>
<g transform="translate(0.000000,1024.000000) scale(0.100000,-0.100000)"
fill="#000000" stroke="none">
<path d="M2286 10074 c-346 -68 -655 -310 -802 -628 -78 -170 -112 -366 -94
-541 14 -138 41 -230 111 -372 32 -68 72 -162 89 -209 31 -91 40 -108 40 -81
0 13 5 15 25 7 14 -5 25 -7 25 -3 0 4 13 -6 30 -22 23 -22 27 -32 19 -46 -8
-15 -6 -17 7 -12 11 4 15 2 11 -4 -5 -7 2 -10 17 -9 14 2 24 -2 23 -7 -1 -6 3
-11 10 -12 15 0 41 -25 28 -26 -42 -3 -68 -23 -201 -155 -46 -44 -84 -93 -104
-133 -36 -72 -70 -195 -70 -255 l-1 -41 -187 -119 c-103 -66 -268 -171 -367
-234 -112 -71 -204 -137 -243 -175 -200 -196 -274 -511 -180 -765 18 -49 132
-227 228 -357 21 -29 36 -55 33 -59 -4 -3 -1 -6 5 -6 6 0 20 -13 31 -28 16
-22 17 -29 5 -29 -7 0 -14 4 -14 9 0 5 -5 6 -10 3 -6 -3 -10 -1 -10 4 0 6 -15
28 -34 48 -19 21 -34 41 -35 46 -1 12 -31 67 -36 67 -9 0 35 -105 45 -108 6
-2 8 -8 4 -13 -5 -8 10 -13 29 -10 5 1 6 -3 2 -9 -3 -6 -11 -7 -17 -4 -7 5 -8
2 -4 -5 5 -7 14 -10 20 -8 7 3 13 -1 13 -9 0 -7 -5 -11 -11 -8 -6 3 -4 0 4 -8
8 -7 21 -24 28 -38 7 -14 22 -36 33 -50 12 -14 17 -18 13 -10 -4 8 -3 11 1 7
5 -4 10 -14 11 -22 3 -19 65 -105 76 -105 4 0 7 -4 5 -8 -3 -10 386 -561 394
-556 3 2 6 -2 6 -9 0 -7 73 -115 163 -242 90 -126 228 -322 308 -435 79 -113
151 -211 160 -218 9 -6 12 -12 6 -12 -5 0 5 -12 21 -26 17 -14 23 -22 15 -18
-13 7 -13 6 0 -12 7 -10 21 -25 30 -32 8 -7 15 -17 15 -22 0 -22 19 -13 26 12
7 26 6 27 -14 17 -12 -7 -19 -8 -15 -4 4 5 4 13 -2 19 -11 15 4 41 19 32 6 -4
9 -11 6 -16 -3 -4 2 -10 10 -14 8 -3 15 -12 15 -20 0 -7 7 -17 16 -20 9 -4 14
-13 10 -22 -3 -8 -2 -13 3 -9 5 3 19 -8 31 -24 l21 -30 -22 4 c-17 4 -19 2 -8
-11 10 -12 9 -13 -4 -9 -8 4 -18 2 -21 -4 -8 -12 28 -33 39 -23 5 4 5 1 1 -6
-4 -7 -13 -10 -19 -6 -7 3 -1 -4 12 -15 13 -12 20 -21 17 -21 -4 0 7 -20 24
-45 17 -25 36 -45 41 -45 6 0 8 -4 5 -9 -9 -13 41 -61 57 -55 22 8 0 74 -28
85 -5 2 -9 7 -8 11 2 5 -2 8 -7 8 -6 0 -10 8 -10 18 1 18 6 12 82 -94 35 -48
36 -53 20 -65 -9 -7 -14 -9 -10 -5 10 12 -29 39 -43 30 -8 -5 -4 -13 12 -26
13 -11 17 -17 9 -13 -8 4 -4 -3 9 -14 13 -12 19 -21 15 -21 -5 0 2 -10 16 -21
14 -11 19 -17 11 -13 -8 4 5 -21 29 -55 25 -35 50 -66 57 -68 7 -3 11 -9 8
-13 -3 -5 3 -13 12 -19 10 -6 14 -11 8 -11 -5 0 1 -10 15 -21 14 -11 18 -18
10 -14 -8 3 -1 -6 15 -20 17 -15 23 -24 15 -20 -8 4 -4 -3 10 -15 14 -12 18
-18 10 -14 -13 7 -13 5 -1 -12 8 -10 26 -30 40 -43 14 -13 20 -20 12 -16 -8 5
0 -13 18 -38 18 -26 37 -47 42 -47 6 0 8 -4 5 -9 -3 -5 7 -23 23 -40 15 -16
27 -32 24 -34 -2 -2 9 -18 25 -35 16 -17 27 -34 24 -36 -3 -3 3 -8 12 -12 9
-3 14 -10 11 -14 -3 -4 8 -22 24 -39 16 -17 27 -31 25 -31 -8 0 212 -309 231
-325 6 -5 14 -14 16 -20 2 -5 8 -9 13 -7 5 2 6 -4 3 -12 -4 -10 2 -20 14 -26
11 -6 17 -15 14 -21 -4 -5 1 -12 9 -15 9 -3 14 -10 11 -14 -3 -5 11 -26 32
-47 21 -20 31 -33 23 -28 -13 8 -13 7 0 -11 7 -10 21 -25 30 -32 8 -7 15 -17
15 -22 0 -5 9 -16 20 -25 11 -9 13 -14 5 -10 -8 4 -5 -2 7 -13 12 -11 19 -22
16 -26 -3 -3 2 -8 11 -12 9 -3 14 -10 11 -14 -3 -5 9 -22 26 -39 17 -17 28
-31 24 -31 -3 0 8 -21 25 -46 23 -33 37 -44 48 -39 14 5 15 4 4 -7 -10 -10 -8
-16 10 -31 13 -10 16 -16 8 -12 -8 4 -6 -1 5 -10 11 -9 20 -20 20 -25 0 -5 9
-16 20 -25 11 -9 13 -14 5 -10 -8 4 -6 -1 4 -9 11 -9 16 -16 10 -16 -5 -1 5
-12 21 -26 17 -15 23 -23 16 -18 -9 4 -5 -6 8 -24 12 -18 27 -32 32 -32 6 0 8
-4 4 -9 -3 -6 3 -14 12 -20 10 -6 15 -11 10 -11 -4 0 18 -37 49 -82 54 -79 87
-121 69 -89 -5 10 -4 12 4 7 6 -4 9 -12 5 -17 -3 -5 9 -24 28 -41 18 -17 26
-28 18 -23 -13 8 -13 7 0 -11 7 -10 21 -25 30 -32 8 -7 15 -18 15 -25 0 -6 12
-13 28 -14 15 -1 25 2 22 7 -3 5 -1 11 4 14 5 4 34 -30 65 -74 30 -44 51 -82
47 -84 -4 -3 -23 8 -42 24 -19 16 -30 29 -25 30 5 0 15 -8 23 -18 12 -15 13
-14 1 8 -7 14 -11 28 -10 33 1 4 -4 6 -10 5 -7 -2 -12 3 -10 10 1 6 -2 12 -8
12 -14 0 -13 -13 2 -28 9 -9 9 -15 -1 -24 -11 -11 -12 -10 -6 1 5 9 4 12 -2 8
-6 -4 -10 1 -9 11 0 9 -5 16 -12 14 -8 -1 -11 1 -8 6 3 5 -1 17 -8 27 -9 13
-15 15 -20 6 -4 -6 0 -14 8 -17 9 -3 14 -10 11 -14 -3 -5 11 -26 32 -47 21
-20 31 -33 24 -28 -8 5 0 -13 19 -38 18 -26 35 -47 37 -47 2 0 14 7 27 16 24
15 25 14 54 -29 25 -36 28 -44 14 -44 -9 0 -23 4 -30 10 -9 7 -16 7 -23 0 -13
-13 23 -37 36 -25 5 4 5 1 1 -6 -4 -7 -12 -9 -18 -6 -7 5 -8 2 -4 -5 5 -7 14
-10 20 -8 7 3 13 -1 13 -9 0 -7 -5 -11 -11 -8 -6 3 0 -4 13 -15 13 -12 20 -21
16 -21 -3 0 12 -27 35 -59 28 -40 48 -59 61 -58 13 1 18 8 16 22 -3 21 -26 66
-27 51 0 -5 -7 -3 -15 4 -8 7 -15 9 -15 4 0 -4 -6 1 -14 11 -8 11 -12 24 -9
29 4 5 1 6 -5 2 -6 -4 -16 4 -23 16 -11 20 -10 21 3 11 10 -9 18 -9 25 -2 8 8
16 3 29 -17 10 -16 36 -53 56 -81 21 -29 35 -53 31 -53 -4 0 1 -6 11 -13 17
-12 17 -14 -1 -27 -10 -8 -15 -10 -10 -5 8 10 -43 46 -55 39 -8 -5 58 -106 98
-149 12 -13 20 -26 17 -28 -2 -3 13 -22 34 -43 21 -21 31 -34 23 -29 -13 8
-13 6 -1 -11 8 -10 26 -30 40 -43 14 -13 19 -20 11 -16 -10 4 -9 1 2 -8 10 -8
15 -16 13 -19 -3 -3 8 -19 24 -37 16 -17 27 -31 24 -31 -9 0 101 -149 114
-154 8 -3 11 -10 8 -16 -3 -6 1 -13 9 -16 9 -3 14 -10 11 -15 -3 -4 4 -13 16
-19 11 -7 18 -14 15 -17 -3 -3 3 -13 12 -22 10 -9 13 -14 7 -11 -6 3 -2 -3 8
-13 11 -9 15 -17 11 -17 -5 0 2 -10 16 -21 14 -11 19 -17 11 -13 -12 6 -11 3
1 -15 21 -30 94 -91 102 -86 3 3 4 2 1 -2 -3 -3 1 -13 7 -22 7 -9 -8 2 -32 24
l-45 40 40 -42 39 -43 576 0 c509 0 578 2 596 16 10 8 13 13 7 9 -24 -12 -13
3 15 21 26 17 27 17 12 -1 -12 -16 -9 -15 18 4 17 12 32 27 32 32 0 6 4 8 8 5
10 -6 64 28 57 36 -3 2 1 5 7 5 22 0 198 119 190 128 -4 5 -2 5 4 2 11 -6 67
26 59 35 -3 2 1 5 7 5 18 0 268 163 268 175 0 5 5 6 10 3 6 -3 13 1 16 9 3 9
10 14 14 11 5 -3 13 3 19 12 6 10 11 14 11 10 0 -5 13 0 29 9 17 10 28 21 26
24 -2 4 1 7 8 7 17 0 67 33 67 45 0 5 4 6 10 3 5 -3 21 5 35 19 14 14 25 23
25 20 0 -3 13 3 29 12 17 10 28 21 26 24 -2 4 1 7 8 7 14 0 139 79 148 94 3 6
8 9 10 7 5 -4 162 96 183 117 9 9 16 14 16 11 0 -4 25 10 55 30 30 20 55 40
55 44 0 4 6 7 13 7 6 0 46 23 87 50 41 27 185 121 320 208 135 87 251 165 258
174 7 9 14 14 15 11 1 -2 28 11 59 31 32 20 54 40 50 44 -4 5 -2 5 4 2 14 -8
66 27 57 38 -5 4 -3 5 3 2 11 -6 67 26 59 35 -3 2 1 5 8 5 17 0 67 33 67 45 0
5 4 6 10 3 5 -3 21 5 35 19 14 14 25 23 25 20 0 -3 13 3 29 12 17 10 28 21 26
24 -2 4 1 7 8 7 17 0 97 53 97 64 0 5 3 8 8 8 20 -3 32 2 26 13 -4 6 -3 8 3 5
13 -8 125 67 116 78 -5 4 -3 5 3 2 10 -6 82 36 95 56 3 5 9 8 13 8 13 -1 36
12 31 18 -2 4 1 8 8 8 17 0 67 33 67 44 0 5 3 8 8 7 11 -4 112 62 112 74 0 5
4 7 8 4 10 -6 124 68 117 76 -3 2 1 5 8 5 15 0 67 33 67 42 0 4 6 8 13 8 13 0
445 277 462 296 6 7 16 13 23 15 21 4 62 33 62 44 0 5 4 7 9 4 5 -3 37 16 72
43 60 45 98 81 86 81 -3 0 9 15 26 32 16 18 49 71 71 118 l41 85 3 144 c4 142
-3 235 -16 227 -4 -2 -7 8 -8 24 -1 36 -52 135 -90 177 -17 18 -29 33 -26 33
3 0 -2 8 -11 18 -9 9 -29 56 -45 103 -34 102 -9 64 -483 734 -403 569 -864
1223 -1399 1985 -433 616 -468 667 -1289 1835 -382 545 -755 1076 -828 1182
-148 212 -211 279 -321 336 -182 96 -426 103 -606 19 -34 -16 -200 -122 -369
-236 l-307 -207 -72 35 c-96 45 -176 60 -291 53 -118 -7 -190 -32 -323 -113
-58 -35 -109 -64 -112 -64 -4 0 -20 21 -37 47 -86 137 -285 407 -343 466 -162
165 -365 275 -579 312 -105 18 -303 18 -397 -1z m197 -341 c-7 -2 -19 -2 -25
0 -7 3 -2 5 12 5 14 0 19 -2 13 -5z m-93 -13 c-23 -4 7 -7 83 -8 65 -1 123 -4
129 -8 5 -4 14 -1 18 6 11 17 104 -11 201 -61 126 -66 195 -141 400 -434 99
-143 201 -300 226 -350 25 -49 47 -91 48 -93 2 -2 106 61 231 139 126 78 243
148 261 155 38 17 150 18 190 3 60 -22 104 -65 176 -167 41 -59 137 -197 213
-306 169 -243 173 -250 174 -305 0 -40 -4 -49 -42 -83 -24 -22 -101 -76 -171
-121 -217 -139 -944 -616 -1450 -951 -265 -176 -507 -330 -537 -342 -73 -31
-128 -30 -195 2 -53 24 -61 34 -230 277 -191 275 -179 259 -225 302 -101 92
-93 279 17 375 21 19 137 94 256 165 119 72 216 132 216 135 0 3 -110 133
-244 289 -211 245 -251 297 -290 376 -195 392 1 842 430 987 44 15 96 27 115
26 l35 -1 -35 -7z m203 3 c-7 -2 -19 -2 -25 0 -7 3 -2 5 12 5 14 0 19 -2 13
-5z m2950 -267 c51 -25 91 -67 144 -149 55 -86 401 -581 1246 -1782 298 -424
501 -711 672 -955 257 -366 364 -518 450 -640 45 -63 183 -259 307 -435 124
-176 321 -457 440 -625 756 -1075 880 -1252 894 -1286 26 -62 10 -183 -36
-273 -47 -93 -86 -120 -1225 -862 -1225 -798 -2312 -1506 -2735 -1782 -152
-99 -300 -188 -330 -199 -115 -41 -279 -21 -396 47 -56 33 -66 46 -374 485
-145 206 -327 465 -405 575 -78 110 -250 353 -382 540 -381 541 -1042 1476
-1343 1900 -152 215 -397 561 -545 770 -456 645 -650 919 -868 1222 -115 161
-218 312 -230 335 -17 35 -21 62 -22 138 0 86 3 101 31 161 17 36 48 82 67
102 20 19 166 116 324 214 382 237 363 227 372 217 5 -5 44 -61 86 -124 255
-376 373 -531 448 -587 123 -91 245 -128 397 -120 161 8 191 22 590 286 335
221 1406 926 1681 1107 76 50 145 104 173 136 55 62 119 189 137 269 18 84 7
250 -20 319 -12 30 -108 177 -212 328 -104 150 -189 276 -189 280 0 4 20 19
43 33 23 15 142 94 263 177 221 150 266 178 314 193 45 15 192 5 233 -15z
m-3897 -1172 c2 -12 -1 -13 -12 -3 -7 6 -11 16 -8 21 7 11 17 3 20 -18z m-842
-2552 c3 -5 -1 -9 -9 -9 -8 0 -12 4 -9 9 3 4 7 8 9 8 2 0 6 -4 9 -8z m22 -48
c2 -12 -1 -13 -12 -3 -7 6 -11 16 -8 21 7 11 17 3 20 -18z m55 -61 c13 -16 12
-17 -3 -4 -17 13 -22 21 -14 21 2 0 10 -8 17 -17z m50 -70 c13 -16 12 -17 -3
-4 -17 13 -22 21 -14 21 2 0 10 -8 17 -17z m1213 -1711 c3 -5 -1 -9 -9 -9 -8
0 -15 4 -15 9 0 4 4 8 9 8 6 0 12 -4 15 -8z m51 -71 c3 -5 2 -12 -3 -15 -5 -3
-9 1 -9 9 0 17 3 19 12 6z m-21 -42 c-3 -5 -10 -7 -15 -3 -5 3 -7 10 -3 15 3
5 10 7 15 3 5 -3 7 -10 3 -15z m175 -177 c16 -22 17 -29 5 -29 -7 0 -12 3 -9
5 3 3 -2 16 -10 29 -22 33 -10 29 14 -5z m7738 -64 c-2 -13 -4 -5 -4 17 -1 22
1 32 4 23 2 -10 2 -28 0 -40z m-7679 -22 c27 -38 30 -45 17 -56 -10 -9 -15 -9
-15 -1 0 6 5 11 10 11 6 0 3 11 -6 25 -16 24 -41 26 -27 2 3 -7 -3 -4 -14 6
-11 9 -23 14 -28 10 -4 -5 -5 -1 0 7 9 17 26 40 30 40 1 0 16 -20 33 -44z
m7669 -68 c-3 -7 -5 -2 -5 12 0 14 2 19 5 13 2 -7 2 -19 0 -25z m-7583 -53
c25 -35 41 -67 35 -70 -5 -4 -8 -1 -7 6 2 7 -6 13 -17 14 -11 0 -19 6 -17 13
1 8 -2 11 -7 8 -5 -4 -12 -2 -16 4 -4 6 -10 8 -15 5 -5 -3 -7 3 -5 14 2 11 -3
25 -11 32 -11 9 -12 15 -3 25 6 8 13 14 14 14 2 0 24 -29 49 -65z m61 -84 c3
-5 1 -12 -5 -16 -5 -3 -10 1 -10 9 0 18 6 21 15 7z m84 -122 c33 -46 60 -88
60 -92 0 -5 8 -15 18 -24 10 -8 13 -12 6 -9 -6 4 -14 2 -18 -4 -9 -14 -18 -13
-41 6 -18 14 -18 14 6 3 25 -12 25 -12 6 9 -10 12 -22 19 -27 17 -4 -3 -10 -1
-14 5 -3 6 0 13 8 16 15 5 19 34 5 34 -5 0 -6 5 -3 10 3 6 -1 13 -9 16 -9 3
-16 13 -16 21 0 8 -4 11 -10 8 -5 -3 -10 -1 -10 4 0 6 -6 10 -12 9 -8 -2 -12
7 -10 27 2 28 2 29 -12 11 -14 -18 -15 -18 -13 2 2 35 25 18 86 -69z m111
-154 c6 -8 9 -19 5 -25 -4 -6 -2 -9 3 -8 6 2 11 -1 13 -7 1 -5 9 -15 17 -21
10 -7 12 -16 6 -25 -9 -14 -44 -23 -42 -10 2 21 -4 31 -14 25 -7 -4 -10 -4 -6
0 4 5 -2 23 -12 41 -14 24 -16 35 -7 39 20 8 24 7 37 -9z m7090 -49 c0 -2 -8
-10 -17 -17 -16 -13 -17 -12 -4 4 13 16 21 21 21 13z m-7000 -80 c16 -25 30
-57 30 -73 l-1 -28 -25 30 c-13 17 -29 29 -34 28 -5 -2 -7 4 -4 12 4 8 11 12
18 8 8 -4 8 -2 -1 7 -6 7 -9 19 -6 28 4 10 2 13 -5 8 -7 -4 -12 -1 -12 8 0 24
7 20 40 -28z m55 -75 c3 -5 1 -12 -5 -16 -5 -3 -10 1 -10 9 0 18 6 21 15 7z
m44 -64 c20 -29 25 -44 16 -44 -8 0 -14 3 -13 6 2 25 -3 33 -16 22 -11 -9 -12
-6 -8 15 l5 26 -29 -17 c-17 -10 -22 -11 -11 -2 9 8 17 19 17 26 0 19 8 13 39
-32z m7141 0 c0 -2 -10 -12 -22 -23 l-23 -19 19 23 c18 21 26 27 26 19z
m-7141 -61 c11 -14 6 -15 -27 -7 -4 1 8 21 12 21 2 0 9 -6 15 -14z m49 -9 c8
-9 8 -17 0 -27 -8 -12 -9 -12 -4 2 3 10 -2 22 -12 27 -9 6 -12 11 -6 11 6 0
16 -6 22 -13z m27 -36 c3 -5 2 -12 -3 -15 -5 -3 -9 1 -9 9 0 17 3 19 12 6z
m19 -42 c-3 -5 -10 -7 -15 -3 -5 3 -7 10 -3 15 3 5 10 7 15 3 5 -3 7 -10 3
-15z m47 -55 c27 -39 30 -50 20 -65 -7 -12 -7 -19 -1 -19 17 0 25 5 22 13 -1
5 2 6 8 2 8 -5 7 -12 -2 -23 -11 -13 -11 -15 4 -9 16 5 40 -25 192 -243 6 -8
6 -12 2 -8 -5 4 -16 2 -24 -5 -12 -9 -16 -9 -19 1 -3 6 -9 9 -15 6 -6 -4 -6 2
1 14 6 11 10 29 10 39 -1 17 -2 17 -6 0 -2 -9 -9 -15 -14 -11 -5 3 -7 10 -4
15 4 5 -1 9 -10 9 -9 0 -15 6 -12 13 2 6 10 11 16 9 7 -1 9 3 6 9 -5 8 -10 8
-18 0 -18 -18 -23 -13 -21 17 2 33 -13 56 -41 60 -11 2 -23 9 -27 15 -4 7 -13
12 -20 12 -7 0 -14 6 -14 13 -1 6 -2 17 -3 23 0 5 -7 7 -13 3 -7 -4 -10 -4 -6
1 4 4 3 14 -3 21 -7 8 -7 14 1 19 21 13 10 32 -18 30 -16 -1 -29 3 -30 9 -1 6
-3 22 -6 36 -3 24 0 40 9 40 2 0 18 -21 36 -46z m265 -403 c1 -29 0 -30 -16
-16 -9 8 -19 13 -21 11 -2 -2 -5 6 -5 20 -2 19 2 23 20 20 16 -2 21 -10 22
-35z m29 -10 c3 -5 2 -12 -3 -15 -5 -3 -9 1 -9 9 0 17 3 19 12 6z m67 -96 c29
-40 34 -55 27 -73 -5 -13 -13 -20 -19 -17 -6 4 -7 12 -3 18 12 19 12 37 2 37
-6 0 -8 4 -4 9 3 5 1 12 -5 16 -13 8 -13 -11 1 -38 12 -21 11 -21 -8 -4 -11 9
-23 15 -26 12 -4 -3 -3 0 2 6 10 12 3 51 -9 44 -4 -2 -5 8 -2 23 5 25 4 26
-14 12 -17 -14 -18 -13 -7 1 7 9 11 18 9 21 -14 24 28 -27 56 -67z m53 -74 c3
-5 2 -12 -3 -15 -5 -3 -9 1 -9 9 0 17 3 19 12 6z m14 -47 c-10 -12 -8 -19 8
-35 15 -16 20 -17 20 -5 0 8 -5 12 -10 9 -6 -4 -7 -1 -2 7 5 9 4 11 -3 6 -7
-4 -12 -5 -12 -2 0 3 4 7 9 10 9 6 144 -175 142 -188 -3 -15 -16 -5 -21 14 -3
12 -9 22 -15 23 -5 1 -9 5 -7 10 1 4 -3 7 -8 7 -6 0 -9 3 -8 8 2 4 -10 19 -25
35 -16 15 -25 32 -21 39 4 7 3 8 -5 4 -6 -4 -8 -13 -4 -19 3 -7 -2 -4 -13 5
-10 9 -23 18 -29 20 -5 2 -10 9 -12 16 -1 8 -4 16 -7 19 -9 9 14 44 25 37 6
-4 6 -11 -2 -20z m105 -195 c-3 -5 -10 -7 -15 -3 -5 3 -7 10 -3 15 3 5 10 7
15 3 5 -3 7 -10 3 -15z m101 -68 c3 -5 2 -12 -3 -15 -5 -3 -9 1 -9 9 0 17 3
19 12 6z m19 -30 c3 -5 -2 -15 -12 -22 -15 -12 -16 -12 -5 2 7 9 10 19 6 22
-3 4 -4 7 0 7 3 0 8 -4 11 -9z m21 -30 c3 -5 1 -12 -5 -16 -5 -3 -10 1 -10 9
0 18 6 21 15 7z m44 -65 c18 -26 30 -55 29 -70 -2 -23 -4 -24 -17 -11 -12 12
-12 16 0 31 9 12 9 15 2 10 -9 -5 -17 3 -24 21 -6 15 -15 36 -20 46 -17 32 0
17 30 -27z m56 -75 c3 -5 1 -12 -5 -16 -5 -3 -10 1 -10 9 0 18 6 21 15 7z
m145 -212 c0 -5 -7 -9 -15 -9 -15 0 -20 12 -9 23 8 8 24 -1 24 -14z m271 -381
c12 -18 19 -30 14 -26 -4 4 -15 2 -24 -5 -14 -10 -14 -10 -4 4 10 12 9 20 -3
37 -8 12 -13 22 -10 22 2 0 15 -15 27 -32z m47 -67 c13 -18 18 -32 12 -36 -6
-4 -9 -3 -8 2 2 4 -1 9 -7 10 -5 0 -9 -4 -7 -10 2 -6 -4 -5 -12 3 -18 14 -21
24 -5 14 7 -4 10 -1 7 7 -3 8 -11 13 -18 11 -11 -3 -11 0 0 12 16 20 12 21 38
-13z m36 -50 c3 -5 -1 -14 -8 -20 -12 -10 -13 -8 -9 8 6 23 9 25 17 12z m57
-82 c23 -34 37 -59 31 -55 -6 3 -13 2 -17 -4 -3 -5 -11 -10 -17 -10 -7 0 -6 5
1 14 9 11 9 16 0 22 -8 5 -10 3 -4 -7 5 -9 1 -8 -11 3 -10 9 -22 16 -26 15
-13 -4 -19 11 -7 19 8 5 10 3 4 -6 -6 -9 -4 -11 4 -5 9 5 7 13 -8 29 -16 17
-18 25 -9 34 7 7 13 12 15 12 1 0 21 -28 44 -61z m56 -101 c-3 -8 -6 -5 -6 6
-1 11 2 17 5 13 3 -3 4 -12 1 -19z m28 -17 c3 -5 2 -12 -3 -15 -5 -3 -9 1 -9
9 0 17 3 19 12 6z m26 -38 c7 -10 9 -15 5 -11 -5 4 -16 2 -25 -5 -14 -10 -14
-10 -4 4 7 9 10 19 6 22 -3 4 -4 7 -1 7 3 0 12 -8 19 -17z m33 -50 l17 -28
-19 22 c-11 12 -22 19 -26 16 -3 -4 -6 -1 -6 5 0 21 17 13 34 -15z m95 -117
c21 -22 29 -36 22 -41 -7 -4 -10 -1 -9 7 2 7 -3 12 -9 11 -7 -2 -12 0 -12 5 3
18 -2 24 -14 14 -10 -9 -13 -6 -13 13 0 14 0 25 1 25 1 0 16 -15 34 -34z m619
-233 c-10 -2 -28 -2 -40 0 -13 2 -5 4 17 4 22 1 32 -1 23 -4z"/>
<path d="M2647 9700 c13 -13 56 -23 49 -12 -3 5 -17 12 -32 15 -14 2 -22 1
-17 -3z"/>
<path d="M2720 9673 c32 -10 65 -29 73 -40 4 -7 15 -9 24 -6 10 4 14 2 10 -4
-4 -6 1 -17 11 -24 15 -13 16 -12 3 4 -11 14 -11 17 0 17 22 1 -94 59 -116 59
-13 0 -15 -2 -5 -6z"/>
<path d="M2450 9357 c-154 -45 -262 -165 -277 -308 -9 -97 56 -219 145 -271
l29 -17 -5 46 -4 46 28 -20 c51 -35 64 -35 99 -4 19 16 31 32 27 36 -4 4 -2 5
3 4 14 -4 75 29 75 41 0 6 3 9 8 8 4 -1 31 6 61 15 30 9 81 17 114 17 l59 0
-4 89 c-3 61 -9 97 -21 114 l-17 26 37 -21 c21 -12 48 -30 61 -41 30 -27 28
-12 -7 48 -87 151 -265 234 -411 192z"/>
<path d="M4380 8574 c0 -3 36 -58 80 -123 44 -65 80 -121 80 -125 0 -3 -107
-76 -237 -162 -131 -86 -242 -161 -248 -167 -12 -13 -5 -8 278 173 125 80 227
149 227 153 0 9 -170 257 -176 257 -2 0 -4 -3 -4 -6z"/>
<path d="M2557 8268 c-7 -128 -40 -237 -104 -340 l-44 -71 24 -26 c12 -14 63
-71 112 -126 173 -193 226 -244 261 -251 42 -8 97 18 127 60 40 57 32 92 -73
286 -52 96 -140 264 -195 374 l-102 199 -6 -105z"/>
<path d="M3967 7945 c-37 -25 -67 -48 -67 -50 0 -3 32 16 70 41 61 41 77 54
67 54 -1 0 -33 -20 -70 -45z"/>
<path d="M3206 7450 c-117 -78 -182 -128 -96 -75 77 48 220 145 220 150 0 7 7
11 -124 -75z"/>
<path d="M2500 7091 c0 -5 3 -11 8 -13 4 -2 17 -15 30 -29 l23 -27 -51 -31
c-27 -17 -52 -31 -54 -31 -2 0 -14 16 -25 36 -12 20 -24 34 -28 31 -9 -10 37
-77 53 -77 18 0 168 100 161 107 -3 2 -16 -3 -30 -11 -23 -16 -25 -15 -48 19
-23 34 -39 44 -39 26z"/>
<path d="M2480 7058 c0 -5 -11 -13 -25 -18 -14 -5 -25 -14 -25 -20 0 -14 7
-13 35 6 14 9 25 12 25 8 0 -10 20 17 20 27 0 3 -7 6 -15 6 -8 0 -15 -4 -15
-9z"/>
<path d="M4825 7431 c-391 -258 -836 -552 -990 -654 -837 -553 -1083 -718
-1099 -736 -26 -28 -23 -87 4 -116 35 -37 73 -41 123 -12 36 20 1860 1226
2552 1686 239 159 255 175 235 236 -14 42 -44 65 -85 65 -24 0 -192 -107 -740
-469z"/>
<path d="M5575 7360 c-11 -4 -423 -274 -915 -600 -492 -326 -1063 -703 -1268
-839 -957 -633 -936 -618 -950 -651 -22 -55 12 -113 73 -126 36 -7 -129 -113
1695 1095 1495 990 1468 971 1478 1000 26 73 -45 148 -113 121z"/>
<path d="M5938 7042 c-458 -304 -1221 -810 -1978 -1310 -366 -241 -675 -449
-686 -461 -28 -28 -34 -62 -18 -99 15 -36 41 -52 84 -52 36 0 -12 -31 1680
1090 261 173 662 438 890 588 228 151 425 284 438 295 52 48 6 157 -67 157
-23 0 -108 -51 -343 -208z"/>
<path d="M7255 6051 c-11 -5 -369 -240 -795 -523 -734 -487 -1298 -861 -1547
-1024 -90 -60 -114 -80 -122 -107 -20 -59 19 -117 77 -117 42 0 -47 -58 1222
784 547 362 1051 696 1120 741 146 96 164 114 164 161 0 58 -68 106 -119 85z"/>
<path d="M2464 5866 c-39 -17 -265 -168 -280 -187 -31 -39 -17 -116 24 -138
44 -24 75 -12 215 81 76 51 145 101 153 112 17 24 18 69 3 98 -6 11 -26 26
-44 34 -40 16 -32 16 -71 0z"/>
<path d="M7153 5458 c-109 -72 -254 -168 -323 -213 -69 -45 -286 -188 -482
-318 l-358 -236 0 -45 c0 -49 15 -71 64 -91 21 -9 37 -10 49 -4 17 10 81 52
892 586 220 145 418 279 440 297 32 27 39 38 39 69 0 51 -35 87 -85 87 -32 0
-70 -21 -236 -132z"/>
<path d="M2864 5006 c-78 -52 -144 -102 -148 -111 -25 -67 19 -135 88 -135 21
0 244 137 290 178 64 58 21 162 -66 162 -13 0 -87 -42 -164 -94z"/>
<path d="M8301 4593 c-14 -6 -282 -182 -1256 -828 -280 -186 -694 -459 -920
-608 -225 -148 -422 -283 -437 -298 -57 -60 -17 -149 66 -149 13 0 77 35 142
78 66 44 281 186 479 317 198 131 477 316 620 410 1023 676 1394 925 1408 946
23 33 21 73 -5 103 -23 26 -71 40 -97 29z"/>
<path d="M4043 4125 c-121 -34 -214 -109 -265 -213 -32 -64 -33 -72 -33 -182
0 -106 2 -120 28 -172 43 -88 107 -152 195 -195 73 -36 80 -38 177 -38 94 0
105 2 168 33 86 42 156 113 198 198 41 82 51 198 25 286 -34 117 -135 227
-248 270 -70 26 -178 32 -245 13z m216 -208 c62 -41 94 -97 99 -171 6 -96 -38
-175 -121 -217 -58 -30 -157 -24 -211 14 -145 98 -137 304 15 385 62 33 158
28 218 -11z"/>
<path d="M7890 3802 c-272 -180 -557 -368 -632 -417 -75 -50 -142 -100 -147
-113 -30 -64 7 -132 72 -132 37 0 1 -22 762 481 253 168 477 315 498 328 44
27 57 48 57 93 -1 51 -40 88 -92 88 -14 0 -225 -134 -518 -328z"/>
<path d="M5095 2646 c-126 -30 -224 -109 -278 -223 -30 -63 -32 -76 -32 -173
0 -99 2 -109 33 -173 142 -288 526 -318 701 -56 56 84 74 152 69 254 -10 187
-143 340 -327 375 -67 12 -102 12 -166 -4z m183 -195 c168 -87 162 -334 -10
-405 -51 -22 -131 -20 -176 3 -168 87 -169 321 -1 404 47 23 140 22 187 -2z"/>
<path d="M2364 3489 c-3 -6 -1 -16 4 -21 8 -8 11 -5 9 11 -1 24 -3 25 -13 10z"/>
<path d="M2720 2981 c0 -6 4 -12 8 -15 5 -3 9 1 9 9 0 8 -4 15 -9 15 -4 0 -8
-4 -8 -9z"/>
<path d="M3043 2530 c-1 -10 6 -25 16 -34 15 -14 18 -14 18 -1 0 8 -4 12 -9 9
-4 -3 -9 0 -9 5 -3 26 -4 30 -9 35 -3 3 -6 -3 -7 -14z"/>
<path d="M3151 2384 c0 -11 3 -14 6 -6 3 7 2 16 -1 19 -3 4 -6 -2 -5 -13z"/>
<path d="M3287 2193 c-4 -3 -7 -11 -7 -17 0 -6 5 -5 12 2 6 6 9 14 7 17 -3 3
-9 2 -12 -2z"/>
<path d="M3326 2132 c-2 -4 -1 -14 4 -22 7 -11 9 -9 7 8 -1 24 -3 26 -11 14z"/>
<path d="M1673 8218 c7 -10 14 -18 17 -19 3 0 13 -2 24 -4 16 -3 16 -2 -3 19
-27 28 -55 32 -38 4z m28 -5 c13 -16 12 -17 -3 -4 -17 13 -22 21 -14 21 2 0
10 -8 17 -17z"/>
<path d="M1697 8116 c-4 -10 -1 -19 8 -22 8 -4 15 -14 16 -23 0 -10 2 -11 6
-3 2 6 8 10 12 8 4 -3 8 1 8 8 0 8 -6 12 -12 10 -6 -3 -16 5 -22 17 -8 20 -10
21 -16 5z"/>
<path d="M2005 4001 c-3 -5 -2 -12 3 -15 5 -3 9 1 9 9 0 17 -3 19 -12 6z"/>
<path d="M2037 3928 c-7 -20 -7 -28 0 -30 3 -2 8 7 9 20 4 24 -1 30 -9 10z"/>
<path d="M2046 3882 c-7 -12 22 -38 31 -28 4 3 0 14 -9 22 -9 10 -18 12 -22 6z"/>
<path d="M2273 3625 c0 -8 4 -12 9 -9 5 3 6 10 3 15 -9 13 -12 11 -12 -6z"/>
<path d="M3865 1367 c-4 -10 -5 -21 -1 -24 10 -10 18 4 13 24 -4 17 -4 17 -12
0z"/>
<path d="M3975 1168 c-13 -8 -14 -13 -4 -24 18 -21 31 -17 23 8 -6 19 -3 18
18 -6 17 -21 25 -24 25 -13 0 9 -5 15 -11 14 -6 -1 -10 5 -10 14 1 18 -16 20
-41 7z"/>
<path d="M4111 1024 c0 -11 3 -14 6 -6 3 7 2 16 -1 19 -3 4 -6 -2 -5 -13z"/>
<path d="M4194 906 c1 -8 5 -18 8 -22 4 -3 5 1 4 10 -1 8 -5 18 -8 22 -4 3 -5
-1 -4 -10z"/>
</g>
</svg>
